<mxfile host="app.diagrams.net" modified="2021-12-08T11:32:51.727Z" agent="5.0 (Windows NT 10.0; Win64; x64) AppleWebKit/537.36 (KHTML, like Gecko) Chrome/96.0.4664.45 Safari/537.36" etag="-vP0lolcAZcz8S-9q_EJ" version="15.9.1" type="github">
  <diagram id="C5RBs43oDa-KdzZeNtuy" name="Page-1">
    <mxGraphModel dx="813" dy="435" grid="1" gridSize="10" guides="1" tooltips="1" connect="1" arrows="1" fold="1" page="1" pageScale="1" pageWidth="827" pageHeight="1169" math="0" shadow="0">
      <root>
        <mxCell id="WIyWlLk6GJQsqaUBKTNV-0" />
        <mxCell id="WIyWlLk6GJQsqaUBKTNV-1" parent="WIyWlLk6GJQsqaUBKTNV-0" />
        <mxCell id="WIyWlLk6GJQsqaUBKTNV-2" value="" style="rounded=0;html=1;jettySize=auto;orthogonalLoop=1;fontSize=11;endArrow=block;endFill=0;endSize=8;strokeWidth=1;shadow=0;labelBackgroundColor=none;edgeStyle=orthogonalEdgeStyle;" parent="WIyWlLk6GJQsqaUBKTNV-1" source="WIyWlLk6GJQsqaUBKTNV-3" target="w_i218n_918Sg6EwQDq0-11" edge="1">
          <mxGeometry relative="1" as="geometry" />
        </mxCell>
        <mxCell id="WIyWlLk6GJQsqaUBKTNV-3" value="初始化SDK，获取对象JxSdkServiceManager" style="rounded=1;whiteSpace=wrap;html=1;fontSize=12;glass=0;strokeWidth=1;shadow=0;" parent="WIyWlLk6GJQsqaUBKTNV-1" vertex="1">
          <mxGeometry x="340" y="60" width="130" height="40" as="geometry" />
        </mxCell>
        <mxCell id="WIyWlLk6GJQsqaUBKTNV-4" value="成功" style="rounded=0;html=1;jettySize=auto;orthogonalLoop=1;fontSize=11;endArrow=block;endFill=0;endSize=8;strokeWidth=1;shadow=0;labelBackgroundColor=none;edgeStyle=orthogonalEdgeStyle;entryX=0.5;entryY=0;entryDx=0;entryDy=0;exitX=0;exitY=0.5;exitDx=0;exitDy=0;" parent="WIyWlLk6GJQsqaUBKTNV-1" source="w_i218n_918Sg6EwQDq0-38" edge="1">
          <mxGeometry x="-0.4145" y="-10" relative="1" as="geometry">
            <mxPoint as="offset" />
            <mxPoint x="220" y="330" as="sourcePoint" />
            <mxPoint x="220" y="375" as="targetPoint" />
          </mxGeometry>
        </mxCell>
        <mxCell id="WIyWlLk6GJQsqaUBKTNV-12" value="关键区域摄像头模块展示在线监控列表" style="rounded=1;whiteSpace=wrap;html=1;fontSize=12;glass=0;strokeWidth=1;shadow=0;" parent="WIyWlLk6GJQsqaUBKTNV-1" vertex="1">
          <mxGeometry x="147.5" y="481" width="145" height="40" as="geometry" />
        </mxCell>
        <mxCell id="w_i218n_918Sg6EwQDq0-0" value="获取监控列表" style="rounded=1;whiteSpace=wrap;html=1;fontSize=12;glass=0;strokeWidth=1;shadow=0;" vertex="1" parent="WIyWlLk6GJQsqaUBKTNV-1">
          <mxGeometry x="160" y="375" width="120" height="40" as="geometry" />
        </mxCell>
        <mxCell id="w_i218n_918Sg6EwQDq0-2" value="" style="rounded=0;html=1;jettySize=auto;orthogonalLoop=1;fontSize=11;endArrow=block;endFill=0;endSize=8;strokeWidth=1;shadow=0;labelBackgroundColor=none;edgeStyle=orthogonalEdgeStyle;exitX=1;exitY=0.5;exitDx=0;exitDy=0;entryX=0;entryY=0.5;entryDx=0;entryDy=0;" edge="1" parent="WIyWlLk6GJQsqaUBKTNV-1" source="w_i218n_918Sg6EwQDq0-3" target="w_i218n_918Sg6EwQDq0-10">
          <mxGeometry relative="1" as="geometry">
            <mxPoint x="610" y="453" as="sourcePoint" />
            <mxPoint x="340" y="593" as="targetPoint" />
          </mxGeometry>
        </mxCell>
        <mxCell id="w_i218n_918Sg6EwQDq0-3" value="点击列表中的某一个监控，发起监控" style="rounded=1;whiteSpace=wrap;html=1;fontSize=12;glass=0;strokeWidth=1;shadow=0;" vertex="1" parent="WIyWlLk6GJQsqaUBKTNV-1">
          <mxGeometry x="147.5" y="560" width="145" height="40" as="geometry" />
        </mxCell>
        <mxCell id="w_i218n_918Sg6EwQDq0-5" value="" style="rounded=0;html=1;jettySize=auto;orthogonalLoop=1;fontSize=11;endArrow=block;endFill=0;endSize=8;strokeWidth=1;shadow=0;labelBackgroundColor=none;edgeStyle=orthogonalEdgeStyle;" edge="1" parent="WIyWlLk6GJQsqaUBKTNV-1">
          <mxGeometry relative="1" as="geometry">
            <mxPoint x="219.71000000000004" y="522" as="sourcePoint" />
            <mxPoint x="220" y="560" as="targetPoint" />
          </mxGeometry>
        </mxCell>
        <mxCell id="w_i218n_918Sg6EwQDq0-6" value="监控模块显示该监控的画面" style="rounded=1;whiteSpace=wrap;html=1;fontSize=12;glass=0;strokeWidth=1;shadow=0;" vertex="1" parent="WIyWlLk6GJQsqaUBKTNV-1">
          <mxGeometry x="531" y="560" width="120" height="40" as="geometry" />
        </mxCell>
        <mxCell id="w_i218n_918Sg6EwQDq0-8" value="" style="rounded=0;html=1;jettySize=auto;orthogonalLoop=1;fontSize=11;endArrow=block;endFill=0;endSize=8;strokeWidth=1;shadow=0;labelBackgroundColor=none;edgeStyle=orthogonalEdgeStyle;entryX=1;entryY=0.5;entryDx=0;entryDy=0;" edge="1" parent="WIyWlLk6GJQsqaUBKTNV-1" target="WIyWlLk6GJQsqaUBKTNV-12">
          <mxGeometry relative="1" as="geometry">
            <mxPoint x="344" y="501" as="sourcePoint" />
            <mxPoint x="304" y="501" as="targetPoint" />
          </mxGeometry>
        </mxCell>
        <mxCell id="w_i218n_918Sg6EwQDq0-10" value="通过getMonitorService中的方法调用sip协议栈与68服务器进行交互" style="rounded=1;whiteSpace=wrap;html=1;fontSize=12;glass=0;strokeWidth=1;shadow=0;" vertex="1" parent="WIyWlLk6GJQsqaUBKTNV-1">
          <mxGeometry x="345" y="560" width="135" height="40" as="geometry" />
        </mxCell>
        <mxCell id="w_i218n_918Sg6EwQDq0-11" value="登录webrtc账号" style="rounded=1;whiteSpace=wrap;html=1;fontSize=12;glass=0;strokeWidth=1;shadow=0;" vertex="1" parent="WIyWlLk6GJQsqaUBKTNV-1">
          <mxGeometry x="342.5" y="140" width="125" height="40" as="geometry" />
        </mxCell>
        <mxCell id="w_i218n_918Sg6EwQDq0-16" value="&lt;span&gt;通过&lt;/span&gt;&lt;span&gt;getMonitorService中的&lt;br&gt;方法调用sip协议栈&lt;br&gt;&lt;/span&gt;与68服务器进行交互" style="rhombus;html=1;shadow=0;fontFamily=Helvetica;fontSize=12;align=center;strokeWidth=1;spacing=6;spacingTop=-4;horizontal=1;whiteSpace=wrap;" vertex="1" parent="WIyWlLk6GJQsqaUBKTNV-1">
          <mxGeometry x="320" y="341" width="170" height="102" as="geometry" />
        </mxCell>
        <mxCell id="w_i218n_918Sg6EwQDq0-18" value="" style="rounded=0;html=1;jettySize=auto;orthogonalLoop=1;fontSize=11;endArrow=block;endFill=0;endSize=8;strokeWidth=1;shadow=0;labelBackgroundColor=none;edgeStyle=orthogonalEdgeStyle;entryX=0;entryY=0.5;entryDx=0;entryDy=0;exitX=0.992;exitY=0.421;exitDx=0;exitDy=0;exitPerimeter=0;" edge="1" parent="WIyWlLk6GJQsqaUBKTNV-1" source="w_i218n_918Sg6EwQDq0-0" target="w_i218n_918Sg6EwQDq0-16">
          <mxGeometry relative="1" as="geometry">
            <mxPoint x="230" y="210" as="sourcePoint" />
            <mxPoint x="230" y="260" as="targetPoint" />
          </mxGeometry>
        </mxCell>
        <mxCell id="w_i218n_918Sg6EwQDq0-19" value="成功" style="rounded=0;html=1;jettySize=auto;orthogonalLoop=1;fontSize=11;endArrow=block;endFill=0;endSize=8;strokeWidth=1;shadow=0;labelBackgroundColor=none;edgeStyle=orthogonalEdgeStyle;entryX=0.5;entryY=0;entryDx=0;entryDy=0;exitX=0.5;exitY=1;exitDx=0;exitDy=0;" edge="1" parent="WIyWlLk6GJQsqaUBKTNV-1" target="w_i218n_918Sg6EwQDq0-22">
          <mxGeometry x="-0.2593" y="20" relative="1" as="geometry">
            <mxPoint as="offset" />
            <mxPoint x="405" y="443" as="sourcePoint" />
            <mxPoint x="405" y="488" as="targetPoint" />
          </mxGeometry>
        </mxCell>
        <mxCell id="w_i218n_918Sg6EwQDq0-20" value="失败" style="edgeStyle=orthogonalEdgeStyle;rounded=0;html=1;jettySize=auto;orthogonalLoop=1;fontSize=11;endArrow=block;endFill=0;endSize=8;strokeWidth=1;shadow=0;labelBackgroundColor=none;entryX=0;entryY=0.5;entryDx=0;entryDy=0;exitX=1;exitY=0.5;exitDx=0;exitDy=0;" edge="1" parent="WIyWlLk6GJQsqaUBKTNV-1" target="w_i218n_918Sg6EwQDq0-21">
          <mxGeometry x="-0.1647" y="11" relative="1" as="geometry">
            <mxPoint as="offset" />
            <mxPoint x="490" y="392" as="sourcePoint" />
            <mxPoint x="526" y="393.02857142857135" as="targetPoint" />
          </mxGeometry>
        </mxCell>
        <mxCell id="w_i218n_918Sg6EwQDq0-21" value="返回空数组" style="rounded=1;whiteSpace=wrap;html=1;fontSize=12;glass=0;strokeWidth=1;shadow=0;" vertex="1" parent="WIyWlLk6GJQsqaUBKTNV-1">
          <mxGeometry x="531" y="372" width="120" height="40" as="geometry" />
        </mxCell>
        <mxCell id="w_i218n_918Sg6EwQDq0-22" value="返回监控列表" style="rounded=1;whiteSpace=wrap;html=1;fontSize=12;glass=0;strokeWidth=1;shadow=0;" vertex="1" parent="WIyWlLk6GJQsqaUBKTNV-1">
          <mxGeometry x="345" y="481" width="120" height="40" as="geometry" />
        </mxCell>
        <mxCell id="w_i218n_918Sg6EwQDq0-24" value="" style="rounded=0;html=1;jettySize=auto;orthogonalLoop=1;fontSize=11;endArrow=block;endFill=0;endSize=8;strokeWidth=1;shadow=0;labelBackgroundColor=none;edgeStyle=orthogonalEdgeStyle;exitX=1;exitY=0.5;exitDx=0;exitDy=0;entryX=0;entryY=0.5;entryDx=0;entryDy=0;" edge="1" parent="WIyWlLk6GJQsqaUBKTNV-1" source="w_i218n_918Sg6EwQDq0-10" target="w_i218n_918Sg6EwQDq0-6">
          <mxGeometry relative="1" as="geometry">
            <mxPoint x="480" y="596.71" as="sourcePoint" />
            <mxPoint x="532.5" y="596.71" as="targetPoint" />
          </mxGeometry>
        </mxCell>
        <mxCell id="w_i218n_918Sg6EwQDq0-36" value="提示登录失败" style="rounded=1;whiteSpace=wrap;html=1;fontSize=12;glass=0;strokeWidth=1;shadow=0;" vertex="1" parent="WIyWlLk6GJQsqaUBKTNV-1">
          <mxGeometry x="530" y="239" width="120" height="40" as="geometry" />
        </mxCell>
        <mxCell id="w_i218n_918Sg6EwQDq0-37" value="失败" style="edgeStyle=orthogonalEdgeStyle;rounded=0;html=1;jettySize=auto;orthogonalLoop=1;fontSize=11;endArrow=block;endFill=0;endSize=8;strokeWidth=1;shadow=0;labelBackgroundColor=none;entryX=0;entryY=0.5;entryDx=0;entryDy=0;exitX=1;exitY=0.5;exitDx=0;exitDy=0;" edge="1" source="w_i218n_918Sg6EwQDq0-38" target="w_i218n_918Sg6EwQDq0-36" parent="WIyWlLk6GJQsqaUBKTNV-1">
          <mxGeometry x="-0.1647" y="11" relative="1" as="geometry">
            <mxPoint as="offset" />
            <mxPoint x="489.9392857142859" y="271.02857142857135" as="sourcePoint" />
            <mxPoint x="526" y="271.02857142857135" as="targetPoint" />
          </mxGeometry>
        </mxCell>
        <mxCell id="w_i218n_918Sg6EwQDq0-38" value="&lt;span&gt;通过&lt;/span&gt;&lt;span&gt;login方法&lt;br&gt;调用sip协议栈&lt;br&gt;与68服务器进行交互&lt;/span&gt;" style="rhombus;whiteSpace=wrap;html=1;shadow=0;fontFamily=Helvetica;fontSize=12;align=center;strokeWidth=1;spacing=6;spacingTop=-4;" vertex="1" parent="WIyWlLk6GJQsqaUBKTNV-1">
          <mxGeometry x="320" y="219" width="170" height="80" as="geometry" />
        </mxCell>
        <mxCell id="w_i218n_918Sg6EwQDq0-39" value="" style="rounded=0;html=1;jettySize=auto;orthogonalLoop=1;fontSize=11;endArrow=block;endFill=0;endSize=8;strokeWidth=1;shadow=0;labelBackgroundColor=none;edgeStyle=orthogonalEdgeStyle;" edge="1" parent="WIyWlLk6GJQsqaUBKTNV-1">
          <mxGeometry relative="1" as="geometry">
            <mxPoint x="405" y="180" as="sourcePoint" />
            <mxPoint x="405" y="220" as="targetPoint" />
          </mxGeometry>
        </mxCell>
      </root>
    </mxGraphModel>
  </diagram>
</mxfile>
